<?xml version="1.0" standalone="no"?>
<!DOCTYPE svg PUBLIC "-//W3C//DTD SVG 20010904//EN"
 "http://www.w3.org/TR/2001/REC-SVG-20010904/DTD/svg10.dtd">
<svg version="1.0" xmlns="http://www.w3.org/2000/svg"
 width="200.000000pt" height="200.000000pt" viewBox="0 0 200.000000 200.000000"
 preserveAspectRatio="xMidYMid meet">

<g transform="translate(0.000000,200.000000) scale(0.100000,-0.100000)"
fill="#000000" stroke="none">
<path d="M1019 1813 c0 -76 -2 -148 -3 -161 -2 -13 1 -25 6 -28 4 -3 8 69 8
160 0 91 -2 166 -5 166 -3 0 -5 -62 -6 -137z"/>
<path d="M402 1883 c-53 -45 -21 -127 48 -125 30 1 43 -9 113 -84 44 -47 82
-82 85 -79 3 3 -14 27 -39 53 -117 125 -113 118 -100 150 10 25 10 35 -3 60
-23 45 -68 56 -104 25z m72 -29 c21 -20 20 -30 -4 -54 -17 -17 -24 -18 -41
-10 -27 15 -33 34 -19 59 13 25 42 27 64 5z"/>
<path d="M725 1840 c-10 -17 20 -44 40 -36 9 3 15 14 13 23 -4 21 -43 30 -53
13z"/>
<path d="M1296 1684 c-43 -41 -75 -78 -72 -81 4 -4 44 30 89 75 102 103 90
107 -17 6z"/>
<path d="M797 1703 c-8 -7 53 -93 65 -93 10 0 5 9 -33 62 -14 21 -29 35 -32
31z"/>
<path d="M571 1553 c-81 -10 -111 -60 -111 -185 -1 -70 -4 -89 -25 -123 -45
-73 -30 -163 35 -219 111 -93 270 -17 270 130 0 94 -77 174 -167 174 -33 0
-33 0 -33 48 0 93 -32 87 465 90 382 2 441 1 461 -13 l24 -15 0 -300 0 -300
-24 -15 c-16 -11 -41 -15 -73 -13 l-48 3 -1 110 c-2 143 -4 145 -155 145 -99
0 -109 2 -109 18 0 44 95 87 164 76 87 -15 113 -46 123 -140 4 -38 10 -54 20
-54 15 0 15 8 -8 112 -14 60 -52 94 -115 104 -96 14 -189 -28 -209 -93 -6 -23
-10 -23 -154 -23 -173 0 -182 -4 -191 -76 -4 -36 -9 -48 -20 -45 -8 2 -50 6
-93 9 -91 5 -152 -9 -192 -45 -47 -44 -55 -79 -53 -230 l1 -138 7 135 c7 142
17 175 62 217 34 32 102 46 181 39 108 -10 107 -8 107 -135 0 -139 0 -139 135
-143 l100 -3 0 -60 0 -60 -118 -3 c-88 -2 -117 -6 -114 -15 5 -17 619 -17 624
0 3 9 -25 13 -109 15 l-113 3 -3 63 -3 62 100 0 c109 0 131 10 131 56 0 23 3
24 68 24 77 0 130 21 149 60 10 19 13 104 11 357 l-3 333 -26 26 c-16 15 -45
30 -70 35 -43 8 -832 10 -898 2z m77 -283 c82 -50 80 -181 -3 -236 -57 -37
-152 -9 -186 56 -23 43 -24 81 -2 127 32 69 123 94 191 53z"/>
<path d="M774 1375 c-7 -17 12 -45 31 -45 19 0 36 25 29 44 -8 20 -53 21 -60
1z"/>
<path d="M1183 1358 c-47 -23 -53 -103 -10 -133 30 -21 100 -19 127 3 15 12
22 29 23 56 2 68 -72 107 -140 74z m101 -34 c54 -53 -39 -129 -96 -77 -20 18
-24 63 -6 81 17 17 84 15 102 -4z"/>
<path d="M990 1290 c-18 -11 -4 -42 17 -38 10 2 19 10 21 19 4 19 -19 31 -38
19z"/>
<path d="M495 430 c-4 -7 -3 -16 3 -22 14 -14 45 -2 40 15 -6 16 -34 21 -43 7z"/>
<path d="M1260 335 l0 -105 25 0 c22 0 25 5 25 33 l0 32 21 -32 c14 -22 29
-33 45 -33 13 0 24 1 24 3 0 2 -11 18 -25 36 l-24 34 26 33 25 34 -25 0 c-17
0 -31 -10 -46 -32 l-21 -33 0 68 c0 65 -1 67 -25 67 l-25 0 0 -105z"/>
<path d="M310 330 l0 -100 58 0 c44 0 63 5 75 18 23 25 21 58 -3 75 -18 13
-19 16 -5 27 21 18 19 57 -4 70 -11 5 -42 10 -70 10 l-51 0 0 -100z m89 61
c21 -13 5 -41 -24 -41 -18 0 -25 5 -25 18 0 31 21 41 49 23z m5 -84 c25 -19
10 -47 -25 -47 -24 0 -29 4 -29 23 0 39 21 48 54 24z"/>
<path d="M720 330 l0 -100 59 0 c66 0 91 15 91 55 0 13 -9 30 -20 38 -18 13
-19 16 -5 27 21 18 19 57 -4 70 -11 5 -42 10 -70 10 l-51 0 0 -100z m95 45 c0
-13 -8 -21 -22 -23 -19 -3 -23 1 -23 23 0 22 4 26 23 23 14 -2 22 -10 22 -23z
m0 -69 c25 -18 13 -46 -20 -46 -21 0 -25 5 -25 30 0 33 15 38 45 16z"/>
<path d="M498 300 c-3 -67 -2 -70 20 -70 21 0 22 4 22 70 0 62 -2 70 -19 70
-17 0 -20 -9 -23 -70z"/>
<path d="M570 355 c0 -10 10 -15 30 -15 17 0 30 -3 30 -6 0 -4 -16 -26 -35
-50 -19 -23 -35 -45 -35 -48 0 -3 29 -6 65 -6 51 0 65 3 65 15 0 10 -10 15
-30 15 -16 0 -30 3 -30 6 0 3 14 23 30 44 17 21 30 43 30 49 0 7 -23 11 -60
11 -47 0 -60 -3 -60 -15z"/>
<path d="M920 350 c-27 -27 -26 -81 0 -105 12 -11 36 -19 55 -19 65 0 98 67
59 122 -20 29 -85 31 -114 2z m84 -26 c17 -45 -10 -82 -46 -63 -33 18 -19 79
17 79 13 0 26 -7 29 -16z"/>
<path d="M1097 352 c-24 -26 -22 -85 3 -107 30 -27 88 -25 111 4 25 30 24 76
-1 101 -26 26 -90 27 -113 2z m87 -28 c16 -42 -12 -81 -45 -64 -19 10 -27 59
-12 73 12 13 51 7 57 -9z"/>
<path d="M1439 349 c-49 -49 2 -139 70 -124 37 8 43 35 6 27 -25 -4 -55 12
-55 29 0 5 23 9 51 9 51 0 51 0 44 27 -4 16 -11 34 -17 40 -17 20 -75 16 -99
-8z m69 -11 c19 -19 14 -28 -18 -28 -16 0 -30 4 -30 8 0 9 21 32 30 32 3 0 11
-5 18 -12z"/>
<path d="M1590 300 c0 -63 2 -70 20 -70 17 0 20 7 20 44 0 44 19 74 40 61 6
-3 10 3 10 14 0 23 -19 28 -38 9 -9 -9 -12 -9 -12 0 0 7 -9 12 -20 12 -18 0
-20 -7 -20 -70z"/>
<path d="M350 126 c0 -42 2 -46 24 -46 25 0 51 22 39 34 -4 4 -8 17 -8 29 0
16 -7 23 -27 25 -27 3 -28 2 -28 -42z m40 19 c0 -8 -4 -15 -10 -15 -5 0 -10 7
-10 15 0 8 5 15 10 15 6 0 10 -7 10 -15z m2 -40 c0 -5 -5 -11 -11 -13 -6 -2
-11 4 -11 13 0 9 5 15 11 13 6 -2 11 -8 11 -13z"/>
<path d="M592 125 c0 -33 2 -43 7 -30 8 19 8 19 19 0 6 -11 14 -17 18 -13 4 4
2 14 -4 21 -9 10 -8 17 0 25 9 9 9 12 1 12 -7 0 -15 -6 -20 -12 -5 -9 -10 -3
-14 17 -5 24 -7 20 -7 -20z"/>
<path d="M434 126 c-10 -26 4 -48 28 -44 33 4 33 52 0 56 -13 2 -25 -3 -28
-12z m42 -7 c3 -6 1 -16 -5 -22 -9 -9 -14 -8 -21 3 -9 15 -4 30 10 30 5 0 12
-5 16 -11z"/>
<path d="M514 126 c-10 -26 4 -48 28 -44 33 4 33 52 0 56 -13 2 -25 -3 -28
-12z m36 -16 c0 -11 -4 -20 -9 -20 -14 0 -23 18 -16 30 10 17 25 11 25 -10z"/>
<path d="M662 110 c0 -19 2 -27 5 -17 2 9 2 25 0 35 -3 9 -5 1 -5 -18z"/>
<path d="M692 115 c-1 -13 3 -27 8 -30 6 -4 10 5 10 20 0 33 22 29 31 -6 6
-21 7 -21 8 9 1 29 -2 32 -27 32 -22 0 -28 -5 -30 -25z"/>
<path d="M777 133 c-14 -14 -6 -45 13 -50 11 -3 17 -10 14 -15 -3 -5 -13 -7
-23 -3 -13 5 -14 4 -3 -7 20 -20 47 3 50 46 3 32 1 36 -21 36 -13 0 -27 -3
-30 -7z m33 -23 c0 -11 -4 -20 -9 -20 -14 0 -23 18 -16 30 10 17 25 11 25 -10z"/>
<path d="M892 110 c0 -19 2 -27 5 -17 2 9 2 25 0 35 -3 9 -5 1 -5 -18z"/>
<path d="M920 126 c0 -8 6 -17 13 -19 9 -4 8 -8 -3 -16 -13 -9 -13 -11 2 -11
25 0 33 21 14 36 -16 12 -16 13 1 17 14 4 14 5 -4 6 -14 1 -23 -5 -23 -13z"/>
<path d="M1014 125 c-10 -24 4 -45 28 -44 17 1 18 2 6 6 -22 5 -24 23 -3 23 8
0 15 7 15 15 0 8 -9 15 -20 15 -11 0 -23 -7 -26 -15z"/>
<path d="M1094 132 c18 -8 18 -9 3 -15 -27 -10 -21 -37 9 -37 22 0 25 4 22 28
-2 21 -9 28 -28 29 -21 2 -22 1 -6 -5z m16 -32 c0 -5 -4 -10 -10 -10 -5 0 -10
5 -10 10 0 6 5 10 10 10 6 0 10 -4 10 -10z"/>
<path d="M1150 126 c0 -8 6 -17 13 -19 9 -4 8 -8 -3 -16 -13 -9 -13 -11 2 -11
25 0 33 21 14 36 -16 12 -16 13 1 17 14 4 14 5 -4 6 -14 1 -23 -5 -23 -13z"/>
<path d="M1200 135 c0 -2 5 -15 11 -29 9 -20 9 -29 -1 -41 -7 -8 -8 -15 -2
-15 14 0 27 19 40 58 7 19 7 32 1 32 -5 0 -9 -7 -9 -15 0 -8 -4 -15 -10 -15
-5 0 -10 7 -10 15 0 8 -4 15 -10 15 -5 0 -10 -2 -10 -5z"/>
<path d="M1311 108 c1 -30 2 -30 8 -9 9 34 31 39 31 7 0 -14 5 -26 10 -26 6 0
10 6 10 14 0 30 -13 46 -36 46 -21 0 -24 -5 -23 -32z"/>
<path d="M1387 133 c-15 -14 -6 -42 15 -49 24 -7 50 19 41 42 -5 14 -44 19
-56 7z m41 -20 c-5 -25 -28 -28 -28 -4 0 12 6 21 16 21 9 0 14 -7 12 -17z"/>
<path d="M1463 119 c4 -13 7 -27 7 -31 0 -16 17 -7 28 15 l11 22 0 -22 c1 -13
6 -23 11 -23 12 0 33 50 25 58 -2 3 -9 -6 -14 -19 -7 -16 -10 -19 -10 -7 -1
27 -20 31 -30 6 -7 -16 -10 -18 -10 -6 -1 9 -6 20 -13 24 -8 5 -9 0 -5 -17z"/>
<path d="M1565 90 c-3 -5 -1 -10 4 -10 6 0 11 5 11 10 0 6 -2 10 -4 10 -3 0
-8 -4 -11 -10z"/>
</g>
</svg>
